<?xml version="1.0" encoding="utf-8"?>
<!-- Generator: Adobe Illustrator 18.0.0, SVG Export Plug-In . SVG Version: 6.00 Build 0)  -->
<!DOCTYPE svg PUBLIC "-//W3C//DTD SVG 1.1//EN" "http://www.w3.org/Graphics/SVG/1.1/DTD/svg11.dtd">
<svg version="1.1" id="Layer_1" xmlns="http://www.w3.org/2000/svg" xmlns:xlink="http://www.w3.org/1999/xlink" x="0px" y="0px"
	 viewBox="0 0 1280 800" enable-background="new 0 0 1280 800" xml:space="preserve">
<g>
	<path fill="#D84141" d="M701,322.8l8.9-8.8l-8.9-8.7l-8.6,8.7h-8l8.6-8.7l-5.3-5.3L673.8,314h-8l21.9-22l-11.1-11.2L654.4,303
		l-2.2-2.2l22.2-22.2l-2.2-2.2l-24.4,24.4l6.7,6.7l20-20l4.4,4.4l-21.7,21.7l-18.2-18.2l-5.3,5.3l13.3,13.3L630,330.9l-16.9-16.9
		l13.3-13.3l-5.3-5.3l-18.2,18.2l-21.7-21.7l4.4-4.4l20,20l6.7-6.7l-23.5-23.5l-2.2,2.2l21.2,21.2l-2.2,2.2l-22.2-22.2L572.3,292
		l21.9,22h-8l-13.9-14l-5.3,5.4l8.6,8.6h-8l-8.6-8.7l-8.9,8.8l8.9,8.6l8.6-8.8h8l-8.6,8.8l5.3,5.2l13.9-14h8l-21.9,22.1l11.1,11.2
		l22.2-22.1l2.2,2.2l-22.2,22.2l2.2,2.2l24.4-24.4l-6.7-6.7l-20,20l-4.4-4.4l21.7-21.7l26.6,26.6l-21.7,21.7l-4.4-4.4l20-20
		l-6.7-6.7l-24.4,24.4l2.2,2.2l22.2-22.2l2.2,2.2l-22.2,22.2l10.3,11.1l21-21.9v8l-13,13.9l4.9,5.3l8.1-8.6v8l-7.7,8.6l9.3,8.9
		l8.9-8.9l-8.5-8.6v-8l8.7,8.6l5.2-5.3l-14-13.9v-8l22,21.9l11.2-11.1l-22.2-22.2l2.2-2.2l22.2,22.2l2.2-2.2l-24.4-24.4l-6.7,6.7
		l20,20l-4.4,4.4l-21.7-21.7l26.6-26.6l21.7,21.7l-4.4,4.4l-20-20l-6.7,6.7l24.4,24.4l2.2-2.2l-22.2-22.2l2.2-2.2l22.2,22.2
		l11.1-11.3L665.8,314h8l13.9,14.1l5.3-5.4l-8.6-8.7h8L701,322.8z M572.3,326.3l-3.6-3.5l8.9-8.8l-8.9-8.9l3.6-3.4l12.1,12.2h0l0,0
		h0L572.3,326.3z M638.9,375.3l-8.9-8.9l-8.9,8.9l-3.5-3.8l12.3-12.5h0.2l12.3,12.5L638.9,375.3z M630,339.8l-25.7-25.7l16.9-16.9
		l3.6,3.6l-13.3,13.3l18.6,18.6l18.6-18.6l-13.3-13.3l3.6-3.6l16.9,16.9L630,339.8z M691.2,322.8l-3.7,3.6L675,314.2V314l12.5-12.4
		l3.6,3.7l-8.5,8.7h0.3v-0.2l-0.3,0.3l0.3,0.3V314h-0.3L691.2,322.8z"/>
	<path fill="#D84141" d="M664.2,280.8l-5.3-5.3l-8.9,8.9l-4.4-4.4l-5.3,5.3l9.8,9.8L664.2,280.8z M645.5,281.7l4.4,4.4l8.9-8.9
		l3.5,3.6L650,293.2l-8-8L645.5,281.7z"/>
	<path fill="#D84141" d="M619.8,285.2l-5.3-5.3l-4.4,4.4l-8.9-8.9l-5.3,5.3L610,295L619.8,285.2z M601.2,277.2l8.9,8.9l4.4-4.4
		l3.5,3.6l-8,8l-12.4-12.4L601.2,277.2z"/>
	<path fill="#D84141" d="M630,323l8.9-8.9l-8.9-8.9l-8.9,8.9L630,323z M630,309.6l4.4,4.4l-4.4,4.4l-4.4-4.4L630,309.6z"/>
</g>
<g>
	<text transform="matrix(1 0 0 1 531.9131 457.9883)" fill="#D84141" font-family="'Corbel'" font-size="51.3429">RailsGirls</text>
	<text transform="matrix(1 0 0 1 530.2593 510.3042)" fill="#D84141" font-family="'Corbel-Bold'" font-size="54.2187">Chișinău</text>
</g>
</svg>
