<?xml version="1.0" encoding="utf-8"?>
<!-- Generator: Adobe Illustrator 18.0.0, SVG Export Plug-In . SVG Version: 6.00 Build 0)  -->
<!DOCTYPE svg PUBLIC "-//W3C//DTD SVG 1.1//EN" "http://www.w3.org/Graphics/SVG/1.1/DTD/svg11.dtd">
<svg version="1.1" id="Layer_1" xmlns="http://www.w3.org/2000/svg" xmlns:xlink="http://www.w3.org/1999/xlink" x="0px" y="0px"
	 viewBox="0 0 193.7 247.8" enable-background="new 0 0 193.7 247.8" xml:space="preserve">
<g>
	<path fill="#D84141" d="M168.1,47.3l8.9-8.8l-8.9-8.7l-8.6,8.7h-8l8.6-8.7l-5.3-5.3l-13.9,13.9h-8l21.9-22L143.7,5.4l-22.2,22.2
		l-2.2-2.2l22.2-22.2l-2.2-2.2l-24.4,24.4l6.7,6.7l20-20l4.4,4.4l-21.7,21.7L106,20l-5.3,5.3L114,38.6L97.1,55.5L80.2,38.6
		l13.3-13.3L88.2,20L70,38.2L48.3,16.4l4.4-4.4l20,20l6.7-6.7L55.9,1.8l-2.2,2.2l21.2,21.2l-2.2,2.2L50.5,5.3L39.4,16.5l21.9,22h-8
		l-13.9-14l-5.3,5.4l8.6,8.6h-8l-8.6-8.7l-8.9,8.8l8.9,8.6l8.6-8.8h8l-8.6,8.8l5.3,5.2l13.9-14h8L39.4,60.6l11.1,11.2l22.2-22.1
		l2.2,2.2L52.7,74.1l2.2,2.2l24.4-24.4l-6.7-6.7l-20,20l-4.4-4.4L70,39.1l26.6,26.6L74.9,87.4L70.5,83l20-20l-6.7-6.7L59.4,80.8
		l2.2,2.2l22.2-22.2L86,63L63.8,85.2l10.3,11.1l21-21.9v8L82,96.3l4.9,5.3l8.1-8.6v8l-7.7,8.6l9.3,8.9l8.9-8.9l-8.5-8.6v-8l8.7,8.6
		l5.2-5.3l-14-13.9v-8l22,21.9l11.2-11.1L108.1,63l2.2-2.2L132.6,83l2.2-2.2l-24.4-24.4l-6.7,6.7l20,20l-4.4,4.4L97.5,65.7
		l26.6-26.6l21.7,21.7l-4.4,4.4l-20-20l-6.7,6.7l24.4,24.4l2.2-2.2l-22.2-22.2l2.2-2.2l22.2,22.2l11.1-11.3l-21.9-22.1h8l13.9,14.1
		l5.3-5.4l-8.6-8.7h8L168.1,47.3z M39.4,50.8l-3.6-3.5l8.9-8.8l-8.9-8.9l3.6-3.4l12.1,12.2h0l0,0h0L39.4,50.8z M106,99.9L97.1,91
		l-8.9,8.9l-3.5-3.8L97,83.5h0.2l12.3,12.5L106,99.9z M97.1,64.4L71.4,38.6l16.9-16.9l3.6,3.6L78.5,38.6l18.6,18.6l18.6-18.6
		l-13.3-13.3l3.6-3.6l16.9,16.9L97.1,64.4z M158.3,47.3l-3.7,3.6l-12.5-12.3v-0.1l12.5-12.4l3.6,3.7l-8.5,8.7h0.3v-0.2l-0.3,0.3
		l0.3,0.3v-0.4h-0.3L158.3,47.3z"/>
	<path fill="#D84141" d="M131.3,5.3L125.9,0l-8.9,8.9l-4.4-4.4l-5.3,5.3l9.8,9.8L131.3,5.3z M112.6,6.2l4.4,4.4l8.9-8.9l3.5,3.6
		l-12.4,12.4l-8-8L112.6,6.2z"/>
	<path fill="#D84141" d="M86.9,9.8l-5.3-5.3l-4.4,4.4L68.2,0l-5.3,5.3l14.2,14.2L86.9,9.8z M68.2,1.8l8.9,8.9l4.4-4.4l3.5,3.6l-8,8
		L64.7,5.3L68.2,1.8z"/>
	<path fill="#D84141" d="M97.1,47.5l8.9-8.9l-8.9-8.9l-8.9,8.9L97.1,47.5z M97.1,34.2l4.4,4.4L97.1,43l-4.4-4.4L97.1,34.2z"/>
</g>
<g>
	<g>
		<path fill="#D84141" d="M7.4,168.6v13.9H3.3V149H12c1.5,0,2.7,0.1,3.7,0.2c1,0.1,2,0.3,2.8,0.5c2.3,0.6,4.1,1.7,5.4,3.2
			s1.9,3.4,1.9,5.7c0,1.4-0.2,2.6-0.7,3.6c-0.4,1.1-1,2-1.8,2.8c-0.8,0.8-1.7,1.4-2.8,1.9c-1.1,0.5-2.3,0.9-3.6,1.1v0.1l9.9,14.3
			h-4.1l-10.3-13.9H7.4z M7.4,152.7v12.3h4c1.3,0,2.3,0,3.2-0.1c0.9-0.1,1.7-0.2,2.4-0.5c1.4-0.4,2.5-1.1,3.3-2.1s1.2-2.2,1.2-3.7
			c0-1.4-0.4-2.6-1.1-3.5c-0.7-0.9-1.7-1.5-3-1.9c-0.6-0.2-1.3-0.3-2.2-0.4s-1.9-0.1-3.2-0.1H7.4z"/>
		<path fill="#D84141" d="M47.1,179.9H47c-0.3,0.4-0.7,0.8-1.2,1.2s-1,0.7-1.7,1.1c-0.6,0.3-1.3,0.6-2.1,0.7
			c-0.8,0.2-1.6,0.3-2.4,0.3c-1.2,0-2.2-0.2-3.2-0.5c-1-0.3-1.8-0.8-2.5-1.5c-0.7-0.7-1.2-1.5-1.6-2.4s-0.6-2-0.6-3.2
			c0-1.2,0.2-2.2,0.6-3.2c0.4-0.9,1-1.7,1.8-2.4c0.8-0.7,1.7-1.2,2.8-1.5c1.1-0.4,2.3-0.5,3.6-0.5c1.2,0,2.4,0.1,3.4,0.3
			c1.1,0.2,2,0.5,2.8,0.8h0.1v-1.7c0-0.7,0-1.2-0.1-1.7s-0.2-0.9-0.4-1.3c-0.4-0.8-1.1-1.5-2.1-2c-1-0.5-2.2-0.8-3.9-0.8
			c-1.2,0-2.3,0.1-3.4,0.3c-1.1,0.2-2.1,0.5-3.2,0.9v-3.3c0.4-0.2,0.9-0.4,1.4-0.6s1.1-0.3,1.7-0.5s1.2-0.2,1.9-0.3
			c0.7-0.1,1.3-0.1,2-0.1c2.4,0,4.4,0.4,5.9,1.3c1.5,0.9,2.6,2,3.3,3.4c0.3,0.5,0.4,1.1,0.5,1.8c0.1,0.6,0.2,1.4,0.2,2.1v15.9h-3.3
			L47.1,179.9z M46.9,172.1c-0.7-0.2-1.6-0.4-2.5-0.6c-1-0.2-2.1-0.3-3.2-0.3c-1.6,0-2.9,0.4-3.9,1.1c-0.9,0.7-1.4,1.8-1.4,3.2
			c0,0.7,0.1,1.4,0.3,1.9c0.2,0.6,0.6,1,1,1.4s0.9,0.6,1.4,0.8c0.6,0.2,1.2,0.3,1.8,0.3c0.8,0,1.6-0.1,2.3-0.4
			c0.7-0.2,1.4-0.5,1.9-0.9c0.6-0.3,1-0.7,1.4-1c0.4-0.3,0.7-0.6,0.9-0.8V172.1z"/>
		<path fill="#D84141" d="M58.4,153.2v-4.3h3.9v4.3H58.4z M58.5,182.5v-23.8h3.9v23.8H58.5z"/>
		<path fill="#D84141" d="M70.5,182.5v-36.3h3.9v36.3H70.5z"/>
		<path fill="#D84141" d="M84.9,165c0,0.7,0.1,1.2,0.4,1.6c0.3,0.4,0.6,0.8,1.1,1c0.5,0.3,1,0.5,1.6,0.6c0.6,0.2,1.2,0.3,1.9,0.5
			c0.9,0.2,1.7,0.4,2.5,0.7c0.8,0.2,1.5,0.6,2.2,1.1c0.7,0.5,1.2,1.1,1.6,2c0.4,0.8,0.6,1.9,0.6,3.2c0,1.2-0.2,2.3-0.7,3.2
			s-1.1,1.7-2,2.3s-1.9,1.1-3.1,1.4c-1.2,0.3-2.5,0.5-3.9,0.5c-0.9,0-1.7,0-2.4-0.1c-0.7-0.1-1.3-0.2-1.9-0.4s-1-0.3-1.4-0.4
			s-0.7-0.3-1-0.4v-3.3c1,0.4,2,0.7,2.9,1c1,0.2,2,0.4,3.2,0.4c0.9,0,1.7-0.1,2.5-0.3c0.7-0.2,1.4-0.4,1.9-0.7
			c0.5-0.3,0.9-0.7,1.2-1.2s0.4-1.1,0.4-1.7c0-0.7-0.1-1.2-0.4-1.7c-0.3-0.4-0.6-0.8-1.1-1.1c-0.4-0.3-1-0.5-1.5-0.7
			s-1.2-0.4-1.8-0.5c-0.8-0.2-1.7-0.4-2.5-0.7s-1.6-0.6-2.3-1.1c-0.7-0.5-1.3-1.1-1.7-1.8c-0.4-0.8-0.7-1.8-0.7-3
			c0-1.3,0.2-2.3,0.7-3.3s1.1-1.7,1.8-2.3c0.8-0.6,1.7-1.1,2.7-1.4s2.1-0.5,3.2-0.5c1.3,0,2.5,0.1,3.7,0.4c1.1,0.3,2.2,0.6,3.1,1
			v3.3c-1-0.4-2-0.7-3-0.9s-2-0.4-3.1-0.4c-0.9,0-1.7,0.1-2.3,0.3c-0.6,0.2-1.2,0.4-1.6,0.8c-0.4,0.3-0.7,0.7-0.9,1.2
			C85,164,84.9,164.5,84.9,165z"/>
		<path fill="#D84141" d="M125.3,169h-7.6v-3.7h11.7v16.2c-0.4,0.2-0.9,0.4-1.5,0.6s-1.5,0.4-2.3,0.5c-0.9,0.2-1.8,0.3-2.8,0.4
			c-1,0.1-2,0.2-2.9,0.2c-2.9,0-5.4-0.4-7.6-1.2c-2.2-0.8-4-1.9-5.5-3.3s-2.6-3.2-3.4-5.2c-0.8-2.1-1.2-4.3-1.2-6.9
			c0-2.7,0.4-5.2,1.3-7.5c0.8-2.2,2.1-4.2,3.7-5.7s3.5-2.8,5.8-3.7s4.8-1.3,7.5-1.3c0.7,0,1.5,0,2.2,0.1s1.4,0.1,2.1,0.3
			c0.7,0.1,1.3,0.2,1.9,0.4s1,0.3,1.4,0.5v3.6c-1-0.3-2.2-0.6-3.5-0.8s-2.6-0.3-3.9-0.3c-1.9,0-3.7,0.3-5.5,0.9
			c-1.7,0.6-3.3,1.5-4.6,2.6c-1.3,1.2-2.4,2.6-3.2,4.4c-0.8,1.8-1.2,3.8-1.2,6.2c0,2.3,0.3,4.3,1,6c0.7,1.7,1.6,3.1,2.8,4.2
			s2.6,1.9,4.3,2.4s3.6,0.8,5.7,0.8c1,0,1.9-0.1,2.9-0.2c0.9-0.1,1.8-0.2,2.5-0.4V169z"/>
		<path fill="#D84141" d="M137.3,153.2v-4.3h3.9v4.3H137.3z M137.4,182.5v-23.8h3.9v23.8H137.4z"/>
		<path fill="#D84141" d="M162.1,161.9h-0.3c-0.9,0-1.8,0.1-2.7,0.3c-0.9,0.2-1.7,0.4-2.5,0.8c-0.8,0.3-1.5,0.8-2.1,1.3
			s-1.1,1.1-1.6,1.8v16.6h-3.9v-23.8h3l0.8,3.8h0.1c0.4-0.6,0.9-1.2,1.4-1.7c0.6-0.5,1.2-1,1.9-1.4c0.7-0.4,1.5-0.7,2.3-0.9
			c0.8-0.2,1.7-0.3,2.6-0.3c0.2,0,0.3,0,0.5,0c0.2,0,0.3,0,0.5,0V161.9z"/>
		<path fill="#D84141" d="M166.5,182.5v-36.3h3.9v36.3H166.5z"/>
		<path fill="#D84141" d="M181,165c0,0.7,0.1,1.2,0.4,1.6c0.3,0.4,0.6,0.8,1.1,1c0.5,0.3,1,0.5,1.6,0.6c0.6,0.2,1.2,0.3,1.9,0.5
			c0.9,0.2,1.7,0.4,2.5,0.7c0.8,0.2,1.5,0.6,2.2,1.1c0.7,0.5,1.2,1.1,1.6,2c0.4,0.8,0.6,1.9,0.6,3.2c0,1.2-0.2,2.3-0.7,3.2
			s-1.1,1.7-2,2.3s-1.9,1.1-3.1,1.4c-1.2,0.3-2.5,0.5-3.9,0.5c-0.9,0-1.7,0-2.4-0.1c-0.7-0.1-1.3-0.2-1.9-0.4s-1-0.3-1.4-0.4
			s-0.7-0.3-1-0.4v-3.3c1,0.4,2,0.7,2.9,1c1,0.2,2,0.4,3.2,0.4c0.9,0,1.7-0.1,2.5-0.3c0.7-0.2,1.4-0.4,1.9-0.7
			c0.5-0.3,0.9-0.7,1.2-1.2s0.4-1.1,0.4-1.7c0-0.7-0.1-1.2-0.4-1.7c-0.3-0.4-0.6-0.8-1.1-1.1c-0.4-0.3-1-0.5-1.5-0.7
			s-1.2-0.4-1.8-0.5c-0.8-0.2-1.7-0.4-2.5-0.7s-1.6-0.6-2.3-1.1c-0.7-0.5-1.3-1.1-1.7-1.8c-0.4-0.8-0.7-1.8-0.7-3
			c0-1.3,0.2-2.3,0.7-3.3s1.1-1.7,1.8-2.3c0.8-0.6,1.7-1.1,2.7-1.4s2.1-0.5,3.2-0.5c1.3,0,2.5,0.1,3.7,0.4c1.1,0.3,2.2,0.6,3.1,1
			v3.3c-1-0.4-2-0.7-3-0.9s-2-0.4-3.1-0.4c-0.9,0-1.7,0.1-2.3,0.3c-0.6,0.2-1.2,0.4-1.6,0.8c-0.4,0.3-0.7,0.7-0.9,1.2
			C181.1,164,181,164.5,181,165z"/>
	</g>
	<g>
		<path fill="#D84141" d="M18.8,204.2c-1.8,0-3.4,0.3-4.9,0.9c-1.5,0.6-2.8,1.4-3.8,2.5c-1.1,1.1-1.9,2.5-2.5,4.1
			c-0.6,1.6-0.9,3.5-0.9,5.6c0,2.1,0.3,3.9,0.8,5.5c0.5,1.6,1.3,2.9,2.4,4c1,1.1,2.3,1.9,3.7,2.4s3.1,0.8,5,0.8
			c1.3,0,2.7-0.1,4.1-0.3c1.4-0.2,2.7-0.5,3.9-0.9v5.6c-1.2,0.4-2.6,0.6-4,0.8c-1.4,0.2-2.9,0.3-4.4,0.3c-3,0-5.6-0.4-7.9-1.3
			c-2.3-0.9-4.2-2.1-5.7-3.6c-1.5-1.6-2.7-3.4-3.4-5.6S0,220.4,0,217.8c0-2.7,0.4-5.2,1.2-7.5c0.8-2.3,2-4.3,3.5-6
			c1.5-1.7,3.5-3,5.8-4s4.9-1.5,7.9-1.5c1.5,0,2.9,0.1,4.3,0.3c1.3,0.2,2.6,0.5,3.6,0.9v5.5c-1.4-0.4-2.7-0.8-3.9-0.9
			C21.2,204.3,20,204.2,18.8,204.2z"/>
		<path fill="#D84141" d="M39,207c0,1.3,0,2.4-0.1,3.3c0,0.9-0.1,1.6-0.2,2.3h0.1c0.4-0.5,0.8-1,1.4-1.5c0.5-0.5,1.1-0.9,1.8-1.3
			c0.6-0.4,1.4-0.7,2.2-0.9c0.8-0.2,1.7-0.3,2.7-0.3c0.8,0,1.7,0.1,2.5,0.3c0.8,0.2,1.6,0.4,2.3,0.8c0.7,0.4,1.3,0.8,1.9,1.4
			c0.6,0.6,1.1,1.2,1.4,2c0.3,0.7,0.6,1.4,0.7,2.3c0.2,0.8,0.2,1.9,0.2,3.1v16.5h-6.3v-15.6c0-0.8,0-1.4-0.1-1.9
			c-0.1-0.5-0.2-0.9-0.4-1.3c-0.4-0.8-0.9-1.3-1.6-1.6c-0.7-0.3-1.5-0.5-2.4-0.5c-1.2,0-2.3,0.3-3.4,0.9c-1,0.6-2,1.4-2.8,2.5v17.7
			h-6.3v-38.3H39V207z"/>
		<path fill="#D84141" d="M62.8,196.5h6.6v6.8h-6.6V196.5z M63,209.2h6.3v25.7H63V209.2z"/>
		<path fill="#D84141" d="M87.7,227.4c0-0.5-0.2-1-0.5-1.4c-0.3-0.4-0.7-0.6-1.2-0.9s-1.1-0.4-1.8-0.6c-0.7-0.2-1.4-0.4-2.1-0.5
			c-0.9-0.2-1.8-0.5-2.6-0.9c-0.8-0.3-1.6-0.8-2.2-1.3c-0.6-0.5-1.2-1.2-1.5-2c-0.4-0.8-0.6-1.8-0.6-3c0-1.4,0.3-2.7,0.8-3.7
			c0.5-1.1,1.2-1.9,2.1-2.6c0.9-0.7,1.9-1.2,3-1.5s2.4-0.5,3.7-0.5c1.6,0,3,0.1,4.4,0.4s2.6,0.6,3.7,1v5.1c-0.6-0.2-1.2-0.4-1.8-0.5
			c-0.6-0.2-1.3-0.3-2-0.4c-0.7-0.1-1.3-0.2-2-0.3c-0.7-0.1-1.3-0.1-1.9-0.1c-0.7,0-1.4,0.1-1.9,0.2s-0.9,0.3-1.2,0.6
			s-0.5,0.5-0.7,0.8c-0.1,0.3-0.2,0.6-0.2,1c0,0.6,0.2,1.1,0.5,1.4c0.3,0.4,0.7,0.7,1.3,0.9c0.5,0.2,1.1,0.4,1.7,0.6
			c0.6,0.1,1.2,0.3,1.7,0.4c0.9,0.2,1.8,0.5,2.6,0.8c0.9,0.3,1.7,0.7,2.4,1.3c0.7,0.5,1.3,1.2,1.7,2.1c0.5,0.9,0.7,1.9,0.7,3.3
			c0,1.4-0.3,2.7-0.8,3.8c-0.5,1.1-1.3,2-2.3,2.7s-2.2,1.2-3.5,1.6c-1.4,0.3-2.9,0.5-4.5,0.5c-1.6,0-3.1-0.1-4.4-0.4s-2.4-0.6-3.2-1
			v-5.1c1.4,0.5,2.6,0.9,3.8,1s2.3,0.3,3.3,0.3c0.8,0,1.5-0.1,2.2-0.2s1.2-0.3,1.7-0.5c0.5-0.2,0.9-0.6,1.2-0.9
			S87.7,227.9,87.7,227.4z M83.3,243.8c0-0.6-0.2-1-0.6-1.2c-0.4-0.3-0.9-0.4-1.5-0.4v-4.5c0.3,0,0.6,0,0.9,0c1.8,0,3.3,0.4,4.4,1.2
			c1.1,0.8,1.6,2.1,1.6,3.7c0,0.8-0.2,1.7-0.5,2.6c-0.4,0.9-0.8,1.8-1.5,2.6h-4.7c0.5-0.7,1-1.5,1.3-2.1
			C83.1,245,83.3,244.4,83.3,243.8z"/>
		<path fill="#D84141" d="M99.3,196.5h6.6v6.8h-6.6V196.5z M99.4,209.2h6.3v25.7h-6.3V209.2z"/>
		<path fill="#D84141" d="M118.5,212.8h0.1c0.4-0.5,0.8-1,1.4-1.6s1.2-1,1.9-1.4c0.7-0.4,1.5-0.7,2.4-0.9c0.9-0.2,1.8-0.4,2.8-0.4
			c0.9,0,1.8,0.1,2.7,0.3c0.9,0.2,1.7,0.5,2.4,1c0.7,0.4,1.4,1,1.9,1.7c0.6,0.7,1,1.6,1.3,2.6c0.2,0.5,0.3,1.1,0.4,1.8
			c0.1,0.6,0.1,1.4,0.1,2.2v16.7h-6.3v-15.7c0-0.7,0-1.3-0.1-1.8s-0.2-0.9-0.3-1.3c-0.3-0.8-0.8-1.4-1.4-1.7s-1.4-0.5-2.3-0.5
			c-1.2,0-2.4,0.3-3.5,0.9c-1.1,0.6-2.1,1.4-3,2.5v17.7h-6.3v-25.7h5.2L118.5,212.8z"/>
		<path fill="#D84141" d="M157.9,232.1h-0.1c-0.4,0.4-0.8,0.8-1.3,1.1s-1.1,0.8-1.7,1.1c-0.6,0.3-1.3,0.6-2.1,0.8s-1.6,0.3-2.5,0.3
			c-1.2,0-2.4-0.2-3.4-0.6c-1.1-0.4-2-0.9-2.7-1.6s-1.4-1.6-1.8-2.6s-0.6-2.1-0.6-3.4c0-1.4,0.3-2.6,0.8-3.7c0.5-1.1,1.2-2,2.1-2.8
			c0.9-0.8,2-1.3,3.2-1.7c1.3-0.4,2.6-0.6,4.2-0.6c1.1,0,2.1,0.1,3.1,0.2s1.8,0.3,2.5,0.5v-1c0-0.6-0.1-1.2-0.3-1.7
			c-0.2-0.6-0.5-1-1-1.5s-1-0.8-1.8-1s-1.6-0.4-2.6-0.4c-1.3,0-2.5,0.1-3.8,0.4c-1.3,0.3-2.6,0.7-4.1,1.3v-4.9
			c1.3-0.6,2.7-1,4.1-1.3c1.4-0.3,3-0.5,4.6-0.5c1.9,0,3.5,0.2,4.9,0.7c1.4,0.5,2.6,1.1,3.5,1.9c0.9,0.8,1.7,1.8,2.1,2.8
			c0.5,1.1,0.7,2.3,0.7,3.6v9.7c0,1.7,0,3.2,0.1,4.4c0,1.2,0.1,2.3,0.1,3.3h-5.7L157.9,232.1z M153.2,201.6c1,0,1.9-0.4,2.5-1.1
			c0.6-0.7,1-1.9,1.2-3.4h5.4c-0.1,1.3-0.3,2.5-0.7,3.6c-0.4,1.1-1,2-1.7,2.8s-1.7,1.4-2.8,1.9c-1.1,0.4-2.4,0.7-3.9,0.7
			c-1.4,0-2.7-0.2-3.8-0.7c-1.1-0.4-2-1.1-2.8-1.9s-1.3-1.7-1.7-2.8c-0.4-1.1-0.6-2.3-0.7-3.6h5.4c0.1,1.6,0.5,2.7,1.2,3.4
			C151.3,201.2,152.2,201.6,153.2,201.6z M157.4,223.9c-0.6-0.1-1.3-0.3-2.1-0.4c-0.8-0.1-1.6-0.2-2.4-0.2c-1.5,0-2.7,0.3-3.6,0.9
			c-0.9,0.6-1.3,1.5-1.3,2.8c0,0.6,0.1,1.1,0.3,1.5c0.2,0.4,0.5,0.8,0.8,1.1c0.3,0.3,0.7,0.5,1.2,0.6c0.5,0.1,0.9,0.2,1.5,0.2
			c0.6,0,1.2-0.1,1.8-0.3c0.6-0.2,1.1-0.4,1.6-0.6s0.9-0.5,1.3-0.9c0.4-0.3,0.7-0.6,1-0.9V223.9z"/>
		<path fill="#D84141" d="M182.1,235.5c-2.6,0-4.7-0.4-6.4-1.3c-1.7-0.9-3-2.1-3.8-3.5c-0.5-0.8-0.8-1.7-1-2.6s-0.3-2-0.3-3.2v-15.7
			h6.3v15c0,0.9,0.1,1.6,0.2,2.2c0.1,0.6,0.3,1.2,0.6,1.6c0.4,0.8,1,1.4,1.8,1.7c0.8,0.4,1.7,0.6,2.8,0.6c1.1,0,2.1-0.2,2.9-0.6
			c0.8-0.4,1.4-1.1,1.8-1.9c0.4-0.8,0.6-2,0.6-3.5v-15.1h6.3v15.7c0,2.1-0.4,3.8-1.1,5.3c-0.4,0.8-0.9,1.5-1.6,2.2s-1.4,1.2-2.3,1.7
			c-0.9,0.5-1.9,0.8-3,1.1C184.7,235.4,183.4,235.5,182.1,235.5z"/>
	</g>
</g>
</svg>
