<?xml version="1.0" encoding="utf-8"?>
<!-- Generator: Adobe Illustrator 18.0.0, SVG Export Plug-In . SVG Version: 6.00 Build 0)  -->
<!DOCTYPE svg PUBLIC "-//W3C//DTD SVG 1.1//EN" "http://www.w3.org/Graphics/SVG/1.1/DTD/svg11.dtd">
<svg version="1.1" id="Layer_1" xmlns="http://www.w3.org/2000/svg" xmlns:xlink="http://www.w3.org/1999/xlink" x="0px" y="0px"
	 viewBox="0 0 113.7 145.6" enable-background="new 0 0 113.7 145.6" xml:space="preserve">
<g>
	<path fill="#FFFFFF" d="M98.7,27.6l5.2-5.1l-5.2-5.3l-5,5H89l5-4.9l-3.1-3.2l-8.2,8.1h-4.7L90.9,9.5l-6.5-6.5l-13,13.1l-1.3-1.3
		l13-13l-1.3-1.3L67.5,14.9l3.9,3.9L83.1,7l2.6,2.6L72.9,22.4L62.2,11.7l-3.1,3.1l7.8,7.8L57,32.6l-9.9-9.9l7.8-7.8l-3.1-3.1
		L41.1,22.4L28.4,9.6L31,7l11.7,11.7l3.9-3.9L32.8,1.1l-1.3,1.3L44,14.9l-1.3,1.3l-13-13l-6.5,6.4L36,22.3h-4.7l-8.2-8L20,17.3l5,5
		h-4.7l-5-4.9l-5.2,5.3l5.2,4.9l5-5.3H25l-5,5.3l3.1,3l8.2-8.3H36L23.1,35.4l6.5,6.7l13-13l1.3,1.3L31,43.5l1.3,1.3l14.3-14.3
		l-3.9-3.9L31,38.3l-2.6-2.6l12.8-12.8l15.6,15.6L44,51.4l-2.6-2.6L53.1,37l-3.9-3.9L34.9,47.4l1.3,1.3l13-13l1.3,1.3l-13,13l6,6.5
		l12.3-12.8v4.7l-7.6,8.2l2.9,3.1l4.8-5v4.7l-4.5,5l5.5,5.2l5.1-5.2l-5.1-5v-4.7l5.2,5l3-3.1l-8.3-8.2v-4.7l13,12.8l6.6-6.5l-13-13
		l1.3-1.3l13,13l1.3-1.3L64.8,33.1L60.9,37l11.7,11.7l-2.6,2.6L57.3,38.6l15.6-15.6l12.8,12.8l-2.6,2.6L71.4,26.6l-3.9,3.9
		l14.3,14.3l1.3-1.3l-13-13l1.3-1.3l13,13l6.5-6.8L78.1,22.3h4.7l8.2,8.5l3.1-3.3l-5-5.2h4.7L98.7,27.6z M23.1,29.7l-2.1-1.9
		l5.2-5.1l-5.2-5.2l2.1-2.2l7.1,7h0l0,0h0L23.1,29.7z M62.2,58.7L57,53.4l-5.2,5.2l-2.1-2.1l7.2-7.3h0.1l7.2,7.3L62.2,58.7z
		 M57,37.8L41.9,22.7l9.9-9.9l2.1,2.1l-7.8,7.8L57,33.6L68,22.7l-7.8-7.8l2.1-2.1l9.9,9.9L57,37.8z M93,27.6l-2.5,2.2l-7.7-7.1v-0.1
		l7.7-7.3l2.3,2L88,22.3h-0.2v0.2l-0.2,0.2l0.2,0.2v-0.6H88L93,27.6z"/>
	<path fill="#FFFFFF" d="M77.1,3.1L74,0l-5.2,5.2l-2.6-2.6L63,5.7l5.7,5.7L77.1,3.1z M66.2,3.6l2.6,2.6L74,1l2.1,2.1l-7.3,7.3
		l-4.7-4.7L66.2,3.6z"/>
	<path fill="#FFFFFF" d="M51,5.7l-3.1-3.1l-2.6,2.6L40.1,0L37,3.1l8.3,8.3L51,5.7z M40.1,1l5.2,5.2l2.6-2.6L50,5.7l-4.7,4.7L38,3.1
		L40.1,1z"/>
	<path fill="#FFFFFF" d="M57,27.9l5.2-5.2L57,17.5l-5.2,5.2L57,27.9z M57,20.1l2.6,2.6L57,25.3l-2.6-2.6L57,20.1z"/>
</g>
<g>
	<g>
		<path fill="#FFFFFF" d="M4.3,99v8.2H1.9V87.5H7c0.9,0,1.6,0,2.2,0.1c0.6,0.1,1.2,0.2,1.7,0.3c1.4,0.4,2.4,1,3.1,1.9
			c0.7,0.9,1.1,2,1.1,3.4c0,0.8-0.1,1.5-0.4,2.1s-0.6,1.2-1.1,1.6c-0.5,0.5-1,0.8-1.7,1.1c-0.6,0.3-1.4,0.5-2.1,0.6v0.1l5.8,8.4
			h-2.4L7.2,99H4.3z M4.3,89.7v7.2h2.4c0.7,0,1.4,0,1.9-0.1s1-0.1,1.4-0.3c0.8-0.3,1.5-0.7,1.9-1.2s0.7-1.3,0.7-2.2
			c0-0.8-0.2-1.5-0.6-2s-1-0.9-1.8-1.1c-0.4-0.1-0.8-0.2-1.3-0.2c-0.5,0-1.1-0.1-1.9-0.1H4.3z"/>
		<path fill="#FFFFFF" d="M27.7,105.7L27.7,105.7c-0.2,0.2-0.5,0.5-0.8,0.7c-0.3,0.2-0.6,0.4-1,0.6s-0.8,0.3-1.2,0.4
			c-0.4,0.1-0.9,0.2-1.4,0.2c-0.7,0-1.3-0.1-1.9-0.3s-1-0.5-1.5-0.9c-0.4-0.4-0.7-0.9-1-1.4s-0.3-1.2-0.3-1.9c0-0.7,0.1-1.3,0.4-1.9
			c0.3-0.5,0.6-1,1.1-1.4c0.5-0.4,1-0.7,1.6-0.9s1.3-0.3,2.1-0.3c0.7,0,1.4,0.1,2,0.2c0.6,0.1,1.2,0.3,1.6,0.4h0.1v-1
			c0-0.4,0-0.7-0.1-1c0-0.3-0.1-0.6-0.3-0.8C27,96,26.6,95.6,26,95.3c-0.6-0.3-1.3-0.5-2.3-0.5c-0.7,0-1.4,0.1-2,0.2
			s-1.2,0.3-1.9,0.6v-1.9c0.2-0.1,0.5-0.2,0.8-0.3c0.3-0.1,0.7-0.2,1-0.3c0.4-0.1,0.7-0.1,1.1-0.2c0.4,0,0.8-0.1,1.2-0.1
			c1.4,0,2.6,0.3,3.5,0.8c0.9,0.5,1.5,1.2,1.9,2c0.1,0.3,0.3,0.7,0.3,1c0.1,0.4,0.1,0.8,0.1,1.2v9.3h-1.9L27.7,105.7z M27.5,101.1
			c-0.4-0.1-0.9-0.2-1.5-0.3c-0.6-0.1-1.2-0.2-1.9-0.2c-1,0-1.7,0.2-2.3,0.6c-0.5,0.4-0.8,1-0.8,1.9c0,0.4,0.1,0.8,0.2,1.1
			c0.1,0.3,0.3,0.6,0.6,0.8s0.5,0.4,0.8,0.5c0.3,0.1,0.7,0.2,1,0.2c0.5,0,0.9-0.1,1.4-0.2c0.4-0.1,0.8-0.3,1.1-0.5s0.6-0.4,0.8-0.6
			c0.2-0.2,0.4-0.3,0.5-0.5V101.1z"/>
		<path fill="#FFFFFF" d="M34.3,90v-2.5h2.3V90H34.3z M34.4,107.2v-14h2.3v14H34.4z"/>
		<path fill="#FFFFFF" d="M41.4,107.2V85.9h2.3v21.3H41.4z"/>
		<path fill="#FFFFFF" d="M49.9,96.9c0,0.4,0.1,0.7,0.2,0.9s0.4,0.4,0.7,0.6c0.3,0.2,0.6,0.3,1,0.4c0.4,0.1,0.7,0.2,1.1,0.3
			c0.5,0.1,1,0.2,1.5,0.4c0.5,0.1,0.9,0.4,1.3,0.6c0.4,0.3,0.7,0.7,1,1.2c0.2,0.5,0.4,1.1,0.4,1.9c0,0.7-0.1,1.3-0.4,1.9
			c-0.3,0.5-0.7,1-1.2,1.4s-1.1,0.6-1.8,0.8c-0.7,0.2-1.5,0.3-2.3,0.3c-0.5,0-1,0-1.4-0.1s-0.8-0.1-1.1-0.2
			c-0.3-0.1-0.6-0.2-0.8-0.3c-0.2-0.1-0.4-0.2-0.6-0.3v-1.9c0.6,0.2,1.2,0.4,1.7,0.6c0.6,0.1,1.2,0.2,1.9,0.2c0.5,0,1,0,1.5-0.1
			c0.4-0.1,0.8-0.2,1.1-0.4s0.6-0.4,0.7-0.7c0.2-0.3,0.3-0.6,0.3-1c0-0.4-0.1-0.7-0.2-1c-0.2-0.3-0.4-0.5-0.6-0.6
			c-0.3-0.2-0.6-0.3-0.9-0.4s-0.7-0.2-1.1-0.3c-0.5-0.1-1-0.2-1.5-0.4c-0.5-0.1-1-0.4-1.4-0.6s-0.7-0.6-1-1.1
			c-0.3-0.5-0.4-1-0.4-1.8c0-0.7,0.1-1.4,0.4-1.9c0.3-0.5,0.6-1,1.1-1.3c0.5-0.4,1-0.6,1.6-0.8s1.2-0.3,1.9-0.3
			c0.8,0,1.5,0.1,2.2,0.2c0.7,0.1,1.3,0.3,1.8,0.6v1.9c-0.6-0.2-1.2-0.4-1.7-0.6c-0.6-0.1-1.2-0.2-1.8-0.2c-0.5,0-1,0.1-1.4,0.2
			c-0.4,0.1-0.7,0.3-0.9,0.4c-0.2,0.2-0.4,0.4-0.5,0.7C49.9,96.3,49.9,96.6,49.9,96.9z"/>
		<path fill="#FFFFFF" d="M73.6,99.2h-4.5v-2.2H76v9.5c-0.2,0.1-0.5,0.2-0.9,0.3c-0.4,0.1-0.9,0.2-1.4,0.3c-0.5,0.1-1.1,0.2-1.6,0.2
			c-0.6,0.1-1.2,0.1-1.7,0.1c-1.7,0-3.2-0.2-4.5-0.7c-1.3-0.5-2.4-1.1-3.2-2c-0.9-0.8-1.5-1.9-2-3.1c-0.5-1.2-0.7-2.6-0.7-4
			c0-1.6,0.2-3.1,0.7-4.4c0.5-1.3,1.2-2.4,2.1-3.4s2.1-1.7,3.4-2.2c1.3-0.5,2.8-0.8,4.4-0.8c0.4,0,0.9,0,1.3,0.1
			c0.4,0,0.8,0.1,1.2,0.1c0.4,0.1,0.8,0.1,1.1,0.2c0.3,0.1,0.6,0.2,0.8,0.3V90c-0.6-0.2-1.3-0.4-2-0.5c-0.8-0.1-1.5-0.2-2.3-0.2
			c-1.1,0-2.2,0.2-3.2,0.5s-1.9,0.9-2.7,1.5s-1.4,1.5-1.9,2.6c-0.5,1-0.7,2.3-0.7,3.6c0,1.4,0.2,2.5,0.6,3.5s0.9,1.8,1.6,2.5
			c0.7,0.6,1.6,1.1,2.6,1.4c1,0.3,2.1,0.5,3.3,0.5c0.6,0,1.1,0,1.7-0.1c0.6-0.1,1-0.1,1.5-0.3V99.2z"/>
		<path fill="#FFFFFF" d="M80.7,90v-2.5h2.3V90H80.7z M80.7,107.2v-14H83v14H80.7z"/>
		<path fill="#FFFFFF" d="M95.2,95.1h-0.2c-0.5,0-1.1,0-1.6,0.1c-0.5,0.1-1,0.2-1.5,0.4c-0.5,0.2-0.9,0.4-1.2,0.7s-0.7,0.6-0.9,1
			v9.7h-2.3v-14h1.8l0.4,2.2h0c0.2-0.4,0.5-0.7,0.8-1c0.3-0.3,0.7-0.6,1.1-0.8s0.9-0.4,1.4-0.6c0.5-0.1,1-0.2,1.5-0.2
			c0.1,0,0.2,0,0.3,0c0.1,0,0.2,0,0.3,0V95.1z"/>
		<path fill="#FFFFFF" d="M97.8,107.2V85.9h2.3v21.3H97.8z"/>
		<path fill="#FFFFFF" d="M106.3,96.9c0,0.4,0.1,0.7,0.2,0.9s0.4,0.4,0.7,0.6c0.3,0.2,0.6,0.3,1,0.4c0.4,0.1,0.7,0.2,1.1,0.3
			c0.5,0.1,1,0.2,1.5,0.4s0.9,0.4,1.3,0.6c0.4,0.3,0.7,0.7,1,1.2c0.2,0.5,0.4,1.1,0.4,1.9c0,0.7-0.1,1.3-0.4,1.9
			c-0.3,0.5-0.7,1-1.2,1.4c-0.5,0.4-1.1,0.6-1.8,0.8s-1.5,0.3-2.3,0.3c-0.5,0-1,0-1.4-0.1c-0.4-0.1-0.8-0.1-1.1-0.2
			s-0.6-0.2-0.8-0.3c-0.2-0.1-0.4-0.2-0.6-0.3v-1.9c0.6,0.2,1.2,0.4,1.7,0.6c0.6,0.1,1.2,0.2,1.9,0.2c0.5,0,1,0,1.5-0.1
			c0.4-0.1,0.8-0.2,1.1-0.4s0.6-0.4,0.7-0.7c0.2-0.3,0.3-0.6,0.3-1c0-0.4-0.1-0.7-0.2-1c-0.2-0.3-0.4-0.5-0.6-0.6
			c-0.3-0.2-0.6-0.3-0.9-0.4c-0.3-0.1-0.7-0.2-1.1-0.3c-0.5-0.1-1-0.2-1.5-0.4c-0.5-0.1-1-0.4-1.4-0.6c-0.4-0.3-0.7-0.6-1-1.1
			c-0.3-0.5-0.4-1-0.4-1.8c0-0.7,0.1-1.4,0.4-1.9c0.3-0.5,0.6-1,1.1-1.3c0.5-0.4,1-0.6,1.6-0.8c0.6-0.2,1.2-0.3,1.9-0.3
			c0.8,0,1.5,0.1,2.2,0.2c0.7,0.1,1.3,0.3,1.8,0.6v1.9c-0.6-0.2-1.2-0.4-1.7-0.6s-1.2-0.2-1.8-0.2c-0.5,0-1,0.1-1.4,0.2
			c-0.4,0.1-0.7,0.3-0.9,0.4s-0.4,0.4-0.5,0.7C106.3,96.3,106.3,96.6,106.3,96.9z"/>
	</g>
	<g>
		<path fill="#FFFFFF" d="M11.1,120c-1,0-2,0.2-2.9,0.5s-1.6,0.8-2.3,1.5c-0.6,0.7-1.1,1.5-1.5,2.4s-0.5,2.1-0.5,3.3
			c0,1.2,0.2,2.3,0.5,3.2c0.3,0.9,0.8,1.7,1.4,2.3c0.6,0.6,1.3,1.1,2.2,1.4c0.9,0.3,1.8,0.5,2.9,0.5c0.8,0,1.6-0.1,2.4-0.2
			c0.8-0.1,1.6-0.3,2.3-0.5v3.3c-0.7,0.2-1.5,0.4-2.3,0.5c-0.8,0.1-1.7,0.2-2.6,0.2c-1.8,0-3.3-0.3-4.6-0.8
			c-1.3-0.5-2.5-1.2-3.4-2.1c-0.9-0.9-1.6-2-2-3.3c-0.5-1.3-0.7-2.7-0.7-4.2c0-1.6,0.2-3.1,0.7-4.4c0.5-1.4,1.2-2.5,2.1-3.5
			c0.9-1,2-1.8,3.4-2.3c1.4-0.6,2.9-0.9,4.6-0.9c0.9,0,1.7,0.1,2.5,0.2c0.8,0.1,1.5,0.3,2.1,0.5v3.2c-0.8-0.3-1.6-0.4-2.3-0.5
			S11.7,120,11.1,120z"/>
		<path fill="#FFFFFF" d="M22.9,121.6c0,0.8,0,1.4,0,1.9s-0.1,1-0.1,1.4h0.1c0.2-0.3,0.5-0.6,0.8-0.9c0.3-0.3,0.7-0.5,1-0.8
			c0.4-0.2,0.8-0.4,1.3-0.5c0.5-0.1,1-0.2,1.6-0.2c0.5,0,1,0,1.5,0.1s0.9,0.3,1.3,0.5s0.8,0.5,1.1,0.8s0.6,0.7,0.8,1.2
			c0.2,0.4,0.3,0.8,0.4,1.3c0.1,0.5,0.1,1.1,0.1,1.8v9.7h-3.7v-9.2c0-0.5,0-0.8-0.1-1.1c0-0.3-0.1-0.6-0.2-0.8
			c-0.2-0.5-0.5-0.8-0.9-1s-0.9-0.3-1.4-0.3c-0.7,0-1.4,0.2-2,0.5s-1.2,0.8-1.7,1.5v10.4h-3.7v-22.5h3.7V121.6z"/>
		<path fill="#FFFFFF" d="M36.9,115.4h3.9v4h-3.9V115.4z M37,122.9h3.7v15.1H37V122.9z"/>
		<path fill="#FFFFFF" d="M51.5,133.6c0-0.3-0.1-0.6-0.3-0.8c-0.2-0.2-0.4-0.4-0.7-0.5c-0.3-0.1-0.6-0.3-1-0.4
			c-0.4-0.1-0.8-0.2-1.2-0.3c-0.5-0.1-1.1-0.3-1.6-0.5c-0.5-0.2-0.9-0.4-1.3-0.8c-0.4-0.3-0.7-0.7-0.9-1.2c-0.2-0.5-0.3-1-0.3-1.7
			c0-0.8,0.1-1.6,0.5-2.2c0.3-0.6,0.7-1.1,1.2-1.5s1.1-0.7,1.8-0.9c0.7-0.2,1.4-0.3,2.2-0.3c0.9,0,1.8,0.1,2.6,0.2s1.5,0.3,2.2,0.6
			v3c-0.3-0.1-0.7-0.2-1.1-0.3s-0.8-0.2-1.2-0.3c-0.4-0.1-0.8-0.1-1.2-0.2c-0.4,0-0.7-0.1-1.1-0.1c-0.4,0-0.8,0-1.1,0.1
			c-0.3,0.1-0.5,0.2-0.7,0.3s-0.3,0.3-0.4,0.5c-0.1,0.2-0.1,0.4-0.1,0.6c0,0.3,0.1,0.6,0.3,0.8c0.2,0.2,0.4,0.4,0.8,0.5
			s0.7,0.2,1,0.3s0.7,0.2,1,0.3c0.5,0.1,1,0.3,1.6,0.5c0.5,0.2,1,0.4,1.4,0.7c0.4,0.3,0.8,0.7,1,1.2c0.3,0.5,0.4,1.1,0.4,1.9
			c0,0.9-0.2,1.6-0.5,2.2c-0.3,0.6-0.8,1.2-1.3,1.6c-0.6,0.4-1.3,0.7-2.1,0.9s-1.7,0.3-2.7,0.3c-1,0-1.8-0.1-2.6-0.2
			c-0.8-0.2-1.4-0.3-1.9-0.6v-3c0.8,0.3,1.6,0.5,2.2,0.6c0.7,0.1,1.3,0.2,1.9,0.2c0.5,0,0.9,0,1.3-0.1s0.7-0.2,1-0.3
			c0.3-0.1,0.5-0.3,0.7-0.6C51.4,134.1,51.5,133.9,51.5,133.6z M48.9,143.2c0-0.3-0.1-0.6-0.3-0.7c-0.2-0.2-0.5-0.2-0.9-0.2v-2.6
			c0.2,0,0.4,0,0.5,0c1.1,0,1.9,0.2,2.6,0.7c0.6,0.5,1,1.2,1,2.2c0,0.5-0.1,1-0.3,1.5c-0.2,0.5-0.5,1-0.9,1.5h-2.8
			c0.3-0.4,0.6-0.9,0.8-1.3C48.8,143.9,48.9,143.5,48.9,143.2z"/>
		<path fill="#FFFFFF" d="M58.3,115.4h3.9v4h-3.9V115.4z M58.4,122.9h3.7v15.1h-3.7V122.9z"/>
		<path fill="#FFFFFF" d="M69.6,125L69.6,125c0.3-0.3,0.6-0.6,0.9-0.9s0.7-0.6,1.1-0.8c0.4-0.2,0.9-0.4,1.4-0.6
			c0.5-0.1,1.1-0.2,1.6-0.2c0.5,0,1.1,0.1,1.6,0.2c0.5,0.1,1,0.3,1.4,0.6s0.8,0.6,1.1,1c0.3,0.4,0.6,0.9,0.8,1.5
			c0.1,0.3,0.2,0.7,0.2,1c0,0.4,0.1,0.8,0.1,1.3v9.8h-3.7v-9.2c0-0.4,0-0.8,0-1s-0.1-0.5-0.2-0.8c-0.2-0.5-0.5-0.8-0.8-1
			c-0.4-0.2-0.8-0.3-1.4-0.3c-0.7,0-1.4,0.2-2.1,0.5s-1.2,0.8-1.7,1.5v10.4h-3.7v-15.1h3L69.6,125z"/>
		<path fill="#FFFFFF" d="M92.8,136.3L92.8,136.3c-0.3,0.2-0.5,0.4-0.8,0.7c-0.3,0.2-0.6,0.4-1,0.6s-0.8,0.4-1.2,0.5
			c-0.5,0.1-0.9,0.2-1.5,0.2c-0.7,0-1.4-0.1-2-0.3s-1.2-0.5-1.6-1c-0.4-0.4-0.8-0.9-1-1.5c-0.3-0.6-0.4-1.3-0.4-2
			c0-0.8,0.1-1.5,0.4-2.2c0.3-0.6,0.7-1.2,1.2-1.6c0.5-0.4,1.2-0.8,1.9-1s1.5-0.3,2.4-0.3c0.7,0,1.3,0,1.8,0.1
			c0.5,0.1,1,0.2,1.4,0.3v-0.6c0-0.4-0.1-0.7-0.2-1c-0.1-0.3-0.3-0.6-0.6-0.9c-0.3-0.3-0.6-0.5-1-0.6c-0.4-0.1-0.9-0.2-1.6-0.2
			c-0.7,0-1.5,0.1-2.2,0.2c-0.7,0.2-1.6,0.4-2.4,0.7v-2.9c0.8-0.3,1.6-0.6,2.4-0.8c0.9-0.2,1.7-0.3,2.7-0.3c1.1,0,2.1,0.1,2.9,0.4
			s1.5,0.6,2.1,1.1c0.6,0.5,1,1,1.2,1.7c0.3,0.6,0.4,1.3,0.4,2.1v5.7c0,1,0,1.9,0,2.6c0,0.7,0,1.4,0.1,1.9h-3.3L92.8,136.3z
			 M90,118.4c0.6,0,1.1-0.2,1.5-0.6c0.4-0.4,0.6-1.1,0.7-2h3.2c0,0.8-0.2,1.5-0.4,2.1c-0.2,0.6-0.6,1.2-1,1.7
			c-0.4,0.5-1,0.8-1.6,1.1c-0.6,0.3-1.4,0.4-2.3,0.4c-0.9,0-1.6-0.1-2.3-0.4c-0.7-0.3-1.2-0.6-1.6-1.1c-0.4-0.5-0.8-1-1-1.7
			s-0.4-1.3-0.4-2.1h3.2c0.1,0.9,0.3,1.6,0.7,2C88.9,118.2,89.4,118.4,90,118.4z M92.5,131.5c-0.4-0.1-0.8-0.2-1.2-0.2
			c-0.5-0.1-0.9-0.1-1.4-0.1c-0.9,0-1.6,0.2-2.1,0.5s-0.8,0.9-0.8,1.6c0,0.3,0.1,0.6,0.2,0.9s0.3,0.5,0.5,0.6
			c0.2,0.2,0.4,0.3,0.7,0.4s0.6,0.1,0.9,0.1c0.4,0,0.7,0,1.1-0.1c0.3-0.1,0.6-0.2,0.9-0.4c0.3-0.2,0.5-0.3,0.8-0.5
			c0.2-0.2,0.4-0.4,0.6-0.5V131.5z"/>
		<path fill="#FFFFFF" d="M106.9,138.3c-1.5,0-2.8-0.3-3.8-0.8c-1-0.5-1.7-1.2-2.3-2.1c-0.3-0.5-0.5-1-0.6-1.5
			c-0.1-0.6-0.2-1.2-0.2-1.9v-9.2h3.7v8.8c0,0.5,0,0.9,0.1,1.3c0.1,0.4,0.2,0.7,0.3,1c0.2,0.5,0.6,0.8,1.1,1s1,0.3,1.6,0.3
			c0.7,0,1.2-0.1,1.7-0.4s0.8-0.6,1.1-1.1c0.2-0.5,0.4-1.2,0.4-2v-8.9h3.7v9.2c0,1.2-0.2,2.3-0.6,3.1c-0.2,0.5-0.5,0.9-0.9,1.3
			c-0.4,0.4-0.8,0.7-1.3,1c-0.5,0.3-1.1,0.5-1.7,0.6C108.5,138.2,107.7,138.3,106.9,138.3z"/>
	</g>
</g>
</svg>
