<?xml version="1.0" encoding="utf-8"?>
<!-- Generator: Adobe Illustrator 17.0.0, SVG Export Plug-In . SVG Version: 6.00 Build 0)  -->
<!DOCTYPE svg PUBLIC "-//W3C//DTD SVG 1.1//EN" "http://www.w3.org/Graphics/SVG/1.1/DTD/svg11.dtd">
<svg version="1.1" id="Layer_1" xmlns="http://www.w3.org/2000/svg" xmlns:xlink="http://www.w3.org/1999/xlink" x="0px" y="0px"
	 width="121px" height="31px" viewBox="0 0 121 31" enable-background="new 0 0 121 31" xml:space="preserve">
<g>
	<path fill="#000000" d="M6.225,8.376c1.239-1.825,3.162-2.77,5.379-2.77c4.922,0,8.962,4.041,8.962,8.963
		c0,2.249-0.814,4.465-2.346,6.127c-1.532,1.695-3.879,2.835-6.16,2.835c-2.314,0-4.498-0.978-5.834-2.868v2.607H0v-3.716h2.249
		V3.716H0V0h6.225V8.376z M6.063,14.472c0,3.031,2.379,5.378,5.378,5.378c2.933,0,5.183-2.51,5.183-5.345
		c0-2.901-2.38-5.28-5.28-5.28C8.442,9.224,6.063,11.571,6.063,14.472z"/>
	<path fill="#000000" d="M27.254,19.557h2.248v3.716h-8.637v-3.716h2.412V3.716h-2.249V0h6.226V19.557z"/>
	<path fill="#000000" d="M29.762,14.504c0-5.085,4.139-9.159,9.191-9.159c5.019,0,9.062,4.172,9.062,9.126
		c0,5.085-4.043,9.257-9.159,9.257C33.77,23.729,29.762,19.524,29.762,14.504z M44.104,14.57c0-2.836-2.25-5.313-5.151-5.313
		c-2.868,0-5.28,2.314-5.28,5.215c0,2.868,2.217,5.346,5.183,5.346C41.755,19.817,44.104,17.47,44.104,14.57z"/>
	<path fill="#000000" d="M54.121,24.772c0.684,1.467,2.379,2.151,3.911,2.151c1.369,0,2.803-0.587,3.684-1.597
		c1.108-1.304,1.206-2.412,1.206-4.042v-0.652c-1.239,2.021-3.227,2.901-5.573,2.901c-4.955,0-8.801-4.139-8.801-8.996
		c0-4.791,4.009-8.963,8.832-8.963c2.346,0,4.498,0.815,5.802,2.836V5.867h5.899v3.716h-2.248v11.375
		c0,2.673-0.195,4.759-2.184,6.747c-1.859,1.825-4.237,2.64-6.812,2.64c-3.618,0-7.399-1.792-8.312-5.573H54.121z M57.934,19.85
		c2.998,0,5.28-2.444,5.28-5.378c0-2.901-2.412-5.247-5.313-5.247s-5.279,2.38-5.279,5.28C52.622,17.47,54.968,19.85,57.934,19.85z"
		/>
	<path fill="#F8A01B" d="M83.831,20.925c-1.271,1.923-3.324,2.803-5.606,2.803c-4.987,0-8.93-4.14-8.93-9.061
		c0-5.052,4.04-9.257,9.125-9.257c2.249,0,4.205,1.043,5.411,2.934V5.867h6.226v3.716h-2.185v9.974h2.185v3.716h-6.226V20.925z
		 M83.896,14.472c0-2.868-2.379-5.182-5.247-5.182c-2.966,0-5.247,2.444-5.247,5.378c0,2.835,2.38,5.182,5.183,5.182
		C81.582,19.85,83.896,17.438,83.896,14.472z"/>
	<path fill="#F8A01B" d="M93.556,9.582h-2.249V5.867h6.225v2.477c1.044-1.923,2.999-2.868,5.15-2.868
		c1.891,0,3.748,0.782,5.019,2.151c1.435,1.597,1.467,3.129,1.467,5.117v6.812h2.249v3.716h-8.475v-3.716h2.248v-5.639
		c0-1.075,0-2.184-0.684-3.129c-0.718-0.945-1.891-1.401-3.064-1.401c-1.206,0-2.445,0.489-3.161,1.467
		c-0.751,0.978-0.751,2.477-0.751,3.651v5.052h2.249v3.716h-8.475v-3.716h2.249V9.582z"/>
	<path fill="#F8A01B" d="M117.826,19.557h3.161v3.716h-7.138V9.582h-2.737V5.867h2.737V0h3.977v5.867h2.966v3.716h-2.966V19.557z"/>
</g>
</svg>
